<svg xmlns="http://www.w3.org/2000/svg" viewBox="0 0 480 400" width="480" height="400">
	<defs>
		<linearGradient id="grd1" gradientUnits="userSpaceOnUse"  x1="207.742" y1="374.543" x2="207.742" y2="44.966">
			<stop offset="0" stop-color="#808080" stop-opacity="0.25" />
			<stop offset="0.54" stop-color="#808080" stop-opacity="0.12" />
			<stop offset="1" stop-color="#808080" stop-opacity="0.1" />
		</linearGradient>
		<linearGradient id="grd2" gradientUnits="userSpaceOnUse"  x1="25206.998" y1="33465.555" x2="25206.998" y2="18588.237">
			<stop offset="0" stop-color="#808080" stop-opacity="0.25" />
			<stop offset="0.54" stop-color="#808080" stop-opacity="0.12" />
			<stop offset="1" stop-color="#808080" stop-opacity="0.1" />
		</linearGradient>
		<linearGradient id="grd3" gradientUnits="userSpaceOnUse"  x1="23150.993" y1="18149.308" x2="23150.993" y2="12371.274">
			<stop offset="0" stop-color="#808080" stop-opacity="0.25" />
			<stop offset="0.54" stop-color="#808080" stop-opacity="0.12" />
			<stop offset="1" stop-color="#808080" stop-opacity="0.1" />
		</linearGradient>
		<clipPath clipPathUnits="userSpaceOnUse" id="cp1">
			<path d="M185.16 152.25L263.82 152.25L263.82 205.26L185.16 205.26L185.16 152.25Z" />
		</clipPath>
		<linearGradient id="grd4" gradientUnits="userSpaceOnUse"  x1="25206.998" y1="52661.129" x2="25206.998" y2="37782.93">
			<stop offset="0" stop-color="#808080" stop-opacity="0.25" />
			<stop offset="0.54" stop-color="#808080" stop-opacity="0.12" />
			<stop offset="1" stop-color="#808080" stop-opacity="0.1" />
		</linearGradient>
		<linearGradient id="grd5" gradientUnits="userSpaceOnUse"  x1="23150.993" y1="30154.601" x2="23150.993" y2="24376.566">
			<stop offset="0" stop-color="#808080" stop-opacity="0.25" />
			<stop offset="0.54" stop-color="#808080" stop-opacity="0.12" />
			<stop offset="1" stop-color="#808080" stop-opacity="0.1" />
		</linearGradient>
		<clipPath clipPathUnits="userSpaceOnUse" id="cp2">
			<path d="M185.16 265.3L263.82 265.3L263.82 318.31L185.16 318.31L185.16 265.3Z" />
		</clipPath>
		<linearGradient id="grd6" gradientUnits="userSpaceOnUse"  x1="204863.795" y1="282162.813" x2="204863.795" y2="47970.036">
			<stop offset="0" stop-color="#808080" stop-opacity="0.25" />
			<stop offset="0.54" stop-color="#808080" stop-opacity="0.12" />
			<stop offset="1" stop-color="#808080" stop-opacity="0.1" />
		</linearGradient>
		<linearGradient id="grd7" gradientUnits="userSpaceOnUse"  x1="111190.117" y1="63674.769" x2="111190.117" y2="44593.386">
			<stop offset="0" stop-color="#808080" stop-opacity="0.25" />
			<stop offset="0.54" stop-color="#808080" stop-opacity="0.12" />
			<stop offset="1" stop-color="#808080" stop-opacity="0.1" />
		</linearGradient>
		<linearGradient id="grd8" gradientUnits="userSpaceOnUse"  x1="62392.3" y1="60592.271" x2="62392.3" y2="48357.062">
			<stop offset="0" stop-color="#808080" stop-opacity="0.25" />
			<stop offset="0.54" stop-color="#808080" stop-opacity="0.12" />
			<stop offset="1" stop-color="#808080" stop-opacity="0.1" />
		</linearGradient>
		<linearGradient id="grd9" gradientUnits="userSpaceOnUse"  x1="57070.893" y1="37115.043" x2="57070.893" y2="31387.433">
			<stop offset="0" stop-color="#808080" stop-opacity="0.25" />
			<stop offset="0.54" stop-color="#808080" stop-opacity="0.12" />
			<stop offset="1" stop-color="#808080" stop-opacity="0.1" />
		</linearGradient>
		<linearGradient id="grd10" gradientUnits="userSpaceOnUse"  x1="11188.999" y1="24906.375" x2="11188.999" y2="22979.029">
			<stop offset="0" stop-color="#808080" stop-opacity="0.25" />
			<stop offset="0.54" stop-color="#808080" stop-opacity="0.12" />
			<stop offset="1" stop-color="#808080" stop-opacity="0.1" />
		</linearGradient>
	</defs>
	<style>
		tspan { white-space:pre }
		.shp0 { fill: url(#grd1) } 
		.shp1 { fill: #f2f2f2 } 
		.shp2 { fill: #e0e0e0 } 
		.shp3 { opacity: 0.702;fill: #01a3bd } 
		.shp4 { fill: url(#grd2) } 
		.shp5 { fill: #f5f5f5 } 
		.shp6 { fill: url(#grd3) } 
		.shp7 { fill: #ffffff } 
		.shp8 { opacity: 0.4;fill: #01a3bd } 
		.shp9 { fill: url(#grd4) } 
		.shp10 { fill: url(#grd5) } 
		.shp11 { opacity: 0.4;fill: #bdbdbd } 
		.shp12 { fill: url(#grd6) } 
		.shp13 { opacity: 0.702;fill: #3ad29f } 
		.shp14 { fill: url(#grd7) } 
		.shp15 { fill: #01a3bd } 
		.shp16 { fill: #3ad29f } 
		.shp17 { fill: #f55f44 } 
		.shp18 { fill: #fdd835 } 
		.shp19 { fill: #47e6b1 } 
		.shp20 { opacity: 0.502;fill: #4d8af0 } 
		.shp21 { opacity: 0.502;fill: #fdd835 } 
		.shp22 { opacity: 0.502;fill: #f55f44 } 
		.shp23 { opacity: 0.502;fill: #47e6b1 } 
		.shp24 { fill: url(#grd8) } 
		.shp25 { fill: url(#grd9) } 
		.shp26 { fill: url(#grd10) } 
		.shp27 { opacity: 0.2;fill: #000000 } 
	</style>
	<g id="Layer" style="opacity: 0.502">
		<path id="Layer" class="shp0" d="M85.08 44.97L330.41 44.97L330.41 374.54L85.08 374.54L85.08 44.97Z" />
	</g>
	<path id="Layer" class="shp1" d="M88.28 49.44L325.94 49.44L325.94 367.51L88.28 367.51L88.28 49.44Z" />
	<path id="Layer" class="shp2" d="M106.81 62.85L188.58 62.85L188.58 65.4L106.81 65.4L106.81 62.85Z" />
	<path id="Layer" class="shp3" d="M106.81 74.34L188.58 74.34L188.58 76.9L106.81 76.9L106.81 74.34Z" />
	<path id="Layer" class="shp2" d="M200.72 62.85L282.49 62.85L282.49 65.4L200.72 65.4L200.72 62.85Z" />
	<path id="Layer" class="shp2" d="M213.49 135.67L295.27 135.67L295.27 138.22L213.49 138.22L213.49 135.67Z" />
	<path id="Layer" class="shp2" d="M215.41 142.69L297.18 142.69L297.18 145.24L215.41 145.24L215.41 142.69Z" />
	<path id="Layer" class="shp2" d="M219.24 149.71L301.02 149.71L301.02 152.27L219.24 152.27L219.24 149.71Z" />
	<path id="Layer" class="shp2" d="M213.49 248.72L295.27 248.72L295.27 251.27L213.49 251.27L213.49 248.72Z" />
	<path id="Layer" class="shp2" d="M215.41 255.74L297.18 255.74L297.18 258.3L215.41 258.3L215.41 255.74Z" />
	<path id="Layer" class="shp2" d="M219.24 262.77L301.02 262.77L301.02 265.32L219.24 265.32L219.24 262.77Z" />
	<g id="Layer" style="opacity: 0.502">
		<path id="Layer" class="shp4" d="M107.44 109.48L194.33 109.48L194.33 197.62L107.44 197.62L107.44 109.48Z" />
	</g>
	<path id="Layer" class="shp5" d="M107.99 111.39L193.5 111.39L193.5 195.7L107.99 195.7L107.99 111.39Z" />
	<g id="Layer" style="opacity: 0.502">
		<path id="Layer" class="shp6" d="M111.01 116.5L190.76 116.5L190.76 171.43L111.01 171.43L111.01 116.5Z" />
	</g>
	<path id="689f37f3-cc41-448d-b172-63ec123bc985" class="shp7" d="M111.55 117.14L190.21 117.14L190.21 170.15L111.55 170.15L111.55 117.14Z" />
	<g id="Clip-Path" clip-path="url(#cp1)">
		<g id="Layer">
			<path id="Layer" class="shp8" d="M104.89 168.24L124.7 137.58L133 150.99L150.88 132.47L166.22 150.99L179.64 123.53L214.14 178.46L102.34 174.63L104.89 168.24L104.89 168.24Z" />
			<path id="Layer" class="shp8" d="M120.22 130.55C117.04 130.55 114.47 127.98 114.47 124.8C114.47 121.62 117.04 119.05 120.22 119.05C123.4 119.05 125.97 121.62 125.97 124.8C125.97 127.98 123.4 130.55 120.22 130.55Z" />
		</g>
	</g>
	<g id="Layer" style="opacity: 0.502">
		<path id="Layer" class="shp9" d="M107.44 222.53L194.33 222.53L194.33 310.67L107.44 310.67L107.44 222.53Z" />
	</g>
	<path id="Layer" class="shp5" d="M107.99 224.44L193.5 224.44L193.5 308.75L107.99 308.75L107.99 224.44Z" />
	<g id="Layer" style="opacity: 0.502">
		<path id="Layer" class="shp10" d="M111.01 229.56L190.76 229.56L190.76 284.49L111.01 284.49L111.01 229.56Z" />
	</g>
	<path id="b429ac3a-f8a8-4171-bcce-5b6c002c0714" class="shp7" d="M111.55 230.19L190.21 230.19L190.21 283.21L111.55 283.21L111.55 230.19Z" />
	<g id="Clip-Path" clip-path="url(#cp2)">
		<g id="Layer">
			<path id="Layer" class="shp11" d="M104.89 281.29L124.7 250.63L133 264.05L150.88 245.52L166.22 264.05L179.64 236.58L214.14 291.51L102.34 287.68L104.89 281.29L104.89 281.29Z" />
			<path id="Layer" class="shp11" d="M120.22 243.61C117.04 243.61 114.47 241.04 114.47 237.86C114.47 234.68 117.04 232.11 120.22 232.11C123.4 232.11 125.97 234.68 125.97 237.86C125.97 241.04 123.4 243.61 120.22 243.61Z" />
		</g>
	</g>
	<g id="Layer" style="opacity: 0.502">
		<path id="Layer" class="shp12" d="M121.1 351.94L185.36 28.68L425.97 76.49L361.72 399.74L121.1 351.94Z" />
	</g>
	<path id="Layer" class="shp7" d="M125.6 345.67L187.61 33.69L420.71 80L358.7 391.98L125.6 345.67Z" />
	<path id="Layer" class="shp2" d="M201.69 51.46L367.12 84.32L366.62 86.83L201.19 53.96L201.69 51.46Z" />
	<path id="Layer" class="shp2" d="M154.62 288.27L320.04 321.13L319.55 323.64L154.12 290.77L154.62 288.27Z" />
	<path id="Layer" class="shp2" d="M151.76 302.68L279.58 328.07L279.09 330.58L151.26 305.18L151.76 302.68Z" />
	<path id="Layer" class="shp3" d="M148.9 317.08L196.52 326.54L196.02 329.05L148.4 319.59L148.9 317.08Z" />
	<path id="Layer" class="shp3" d="M198.83 65.87L281.54 82.3L281.04 84.81L198.33 68.38L198.83 65.87Z" />
	<path id="Layer" class="shp2" d="M195.97 80.28L345.1 109.91L344.6 112.41L195.47 82.78L195.97 80.28Z" />
	<path id="Layer" class="shp13" d="M193.11 94.69L229.45 101.91L228.95 104.41L192.61 97.19L193.11 94.69Z" />
	<path id="Layer" class="shp2" d="M190.24 109.09L355.66 141.96L355.16 144.47L189.74 111.6L190.24 109.09Z" />
	<g id="Layer" style="opacity: 0.502">
		<path id="Layer" class="shp14" d="M187.88 255.15L204.82 169.95L353.32 199.46L336.39 284.66L187.88 255.15Z" />
	</g>
	<path id="Layer" class="shp7" d="M205.66 170.77L352.29 199.9L335.73 283.22L189.1 254.09L205.66 170.77Z" />
	<path id="Layer" class="shp2" d="M187.37 123.5L352.8 156.37L352.3 158.87L186.88 126.01L187.37 123.5Z" />
	<path id="Layer" class="shp15" d="M218.77 185.09L236.95 188.7L224.87 249.47L206.7 245.86L218.77 185.09Z" />
	<path id="Layer" class="shp16" d="M247.37 211.62L265.54 215.23L257.45 255.95L239.28 252.34L247.37 211.62Z" />
	<path id="Layer" class="shp17" d="M276.22 236.88L294.39 240.49L290.03 262.42L271.86 258.81L276.22 236.88Z" />
	<path id="Layer" class="shp18" d="M313.29 220.81L331.46 224.42L322.62 268.89L304.44 265.28L313.29 220.81Z" />
	<g id="Layer" style="opacity: 0.502">
		<path id="Layer" class="shp19" d="M67.19 336.86L69.11 336.86L69.11 347.72L67.19 347.72L67.19 336.86Z" />
		<path id="Layer" class="shp19" d="M73.59 341.33L73.59 343.25L62.73 343.25L62.73 341.33L73.59 341.33Z" />
	</g>
	<path id="Layer" class="shp20" d="M291.71 4.35C291.45 4.24 291.21 4.08 291.01 3.88C290.81 3.68 290.64 3.44 290.52 3.18C290.4 2.92 290.33 2.64 290.31 2.36C290.29 2.07 290.32 1.79 290.41 1.51C290.41 1.49 290.42 1.47 290.43 1.45C290.43 1.43 290.44 1.41 290.44 1.39C290.45 1.36 290.45 1.34 290.45 1.32C290.46 1.3 290.46 1.28 290.46 1.25L290.46 1.25C290.47 1.01 290.4 0.76 290.26 0.56C290.12 0.35 289.93 0.2 289.7 0.11C289.46 0.03 289.21 0.01 288.97 0.08C288.74 0.14 288.53 0.28 288.37 0.48L288.37 0.48C288.36 0.49 288.35 0.51 288.33 0.53C288.32 0.55 288.31 0.57 288.3 0.59C288.29 0.61 288.28 0.62 288.27 0.64C288.26 0.66 288.25 0.68 288.24 0.7C288.13 0.97 287.97 1.21 287.77 1.41C287.57 1.61 287.33 1.78 287.07 1.9C286.81 2.02 286.53 2.09 286.25 2.11C285.96 2.13 285.68 2.09 285.4 2.01C285.38 2 285.36 2 285.34 1.99C285.32 1.99 285.3 1.98 285.28 1.98C285.25 1.97 285.23 1.97 285.21 1.97C285.19 1.96 285.17 1.96 285.14 1.96L285.14 1.96C284.9 1.95 284.65 2.02 284.45 2.16C284.24 2.29 284.09 2.49 284 2.72C283.92 2.95 283.9 3.21 283.97 3.44C284.03 3.68 284.17 3.89 284.36 4.05L284.36 4.05C284.38 4.06 284.4 4.07 284.42 4.08C284.44 4.1 284.46 4.11 284.48 4.12C284.5 4.13 284.51 4.14 284.53 4.15C284.55 4.16 284.57 4.17 284.59 4.18C284.86 4.29 285.09 4.45 285.3 4.65C285.5 4.85 285.67 5.09 285.79 5.35C285.91 5.61 285.98 5.88 286 6.17C286.02 6.45 285.98 6.74 285.9 7.01C285.89 7.03 285.89 7.06 285.88 7.08C285.88 7.1 285.87 7.12 285.87 7.14C285.86 7.16 285.86 7.19 285.86 7.21C285.85 7.23 285.85 7.25 285.85 7.27L285.85 7.27C285.84 7.52 285.91 7.76 286.05 7.97C286.18 8.17 286.38 8.33 286.61 8.42C286.84 8.5 287.1 8.51 287.33 8.45C287.57 8.38 287.78 8.24 287.94 8.05L287.94 8.05C287.95 8.03 287.96 8.02 287.97 8C287.99 7.98 288 7.96 288.01 7.94C288.02 7.92 288.03 7.9 288.04 7.88C288.05 7.86 288.06 7.84 288.07 7.82C288.18 7.56 288.34 7.32 288.54 7.12C288.74 6.91 288.98 6.75 289.24 6.63C289.5 6.51 289.78 6.44 290.06 6.42C290.35 6.4 290.63 6.43 290.9 6.52C290.93 6.52 290.95 6.53 290.97 6.54C290.99 6.54 291.01 6.55 291.03 6.55C291.05 6.56 291.08 6.56 291.1 6.56C291.12 6.57 291.14 6.57 291.17 6.57L291.17 6.57C291.41 6.58 291.65 6.51 291.86 6.37C292.06 6.23 292.22 6.04 292.31 5.81C292.39 5.57 292.4 5.32 292.34 5.08C292.27 4.85 292.14 4.64 291.94 4.48L291.94 4.48C291.93 4.47 291.91 4.45 291.89 4.44C291.87 4.43 291.85 4.42 291.83 4.41C291.81 4.4 291.79 4.39 291.77 4.38C291.75 4.37 291.73 4.36 291.71 4.35L291.71 4.35Z" />
	<path id="Layer" class="shp21" d="M75.94 58.57C75.68 58.46 75.44 58.3 75.24 58.1C75.04 57.9 74.87 57.66 74.75 57.41C74.63 57.15 74.56 56.87 74.54 56.58C74.52 56.3 74.55 56.01 74.64 55.74C74.64 55.72 74.65 55.7 74.66 55.67C74.66 55.65 74.67 55.63 74.67 55.61C74.68 55.59 74.68 55.57 74.68 55.54C74.69 55.52 74.69 55.5 74.69 55.48L74.69 55.48C74.7 55.23 74.63 54.99 74.49 54.78C74.35 54.58 74.16 54.42 73.93 54.34C73.69 54.25 73.44 54.24 73.2 54.3C72.97 54.37 72.76 54.51 72.6 54.7L72.6 54.7C72.59 54.72 72.58 54.74 72.56 54.75C72.55 54.77 72.54 54.79 72.53 54.81C72.52 54.83 72.51 54.85 72.5 54.87C72.49 54.89 72.48 54.91 72.47 54.93C72.36 55.19 72.2 55.43 72 55.63C71.8 55.84 71.56 56 71.3 56.12C71.04 56.24 70.76 56.31 70.48 56.33C70.19 56.35 69.91 56.32 69.63 56.23C69.61 56.23 69.59 56.22 69.57 56.22C69.55 56.21 69.53 56.21 69.5 56.2C69.48 56.2 69.46 56.19 69.44 56.19C69.42 56.19 69.39 56.18 69.37 56.18L69.37 56.18C69.13 56.17 68.88 56.24 68.68 56.38C68.47 56.52 68.32 56.72 68.23 56.95C68.15 57.18 68.13 57.43 68.2 57.67C68.26 57.91 68.4 58.12 68.59 58.27L68.59 58.27C68.61 58.28 68.63 58.3 68.65 58.31C68.67 58.32 68.69 58.33 68.71 58.34C68.72 58.35 68.74 58.36 68.76 58.37C68.78 58.38 68.8 58.39 68.82 58.4C69.09 58.52 69.32 58.68 69.53 58.88C69.73 59.08 69.9 59.31 70.02 59.57C70.14 59.83 70.21 60.11 70.23 60.39C70.25 60.68 70.21 60.96 70.13 61.24C70.12 61.26 70.12 61.28 70.11 61.3C70.11 61.32 70.1 61.34 70.1 61.37C70.09 61.39 70.09 61.41 70.09 61.43C70.08 61.45 70.08 61.48 70.08 61.5L70.08 61.5C70.07 61.75 70.14 61.99 70.28 62.19C70.41 62.4 70.61 62.55 70.84 62.64C71.07 62.73 71.33 62.74 71.56 62.67C71.8 62.61 72.01 62.47 72.17 62.28L72.17 62.28C72.18 62.26 72.19 62.24 72.2 62.22C72.22 62.2 72.23 62.18 72.24 62.17C72.25 62.15 72.26 62.13 72.27 62.11C72.28 62.09 72.29 62.07 72.3 62.05C72.41 61.79 72.57 61.55 72.77 61.34C72.97 61.14 73.21 60.97 73.47 60.85C73.73 60.73 74.01 60.66 74.29 60.64C74.57 60.63 74.86 60.66 75.13 60.74C75.15 60.75 75.18 60.75 75.2 60.76C75.22 60.77 75.24 60.77 75.26 60.78C75.28 60.78 75.31 60.78 75.33 60.79C75.35 60.79 75.37 60.79 75.39 60.79L75.39 60.79C75.64 60.8 75.88 60.73 76.09 60.6C76.29 60.46 76.45 60.26 76.54 60.03C76.62 59.8 76.63 59.55 76.57 59.31C76.5 59.07 76.37 58.86 76.17 58.7L76.17 58.7C76.16 58.69 76.14 58.68 76.12 58.67C76.1 58.66 76.08 58.64 76.06 58.63C76.04 58.62 76.02 58.61 76 58.6C75.98 58.59 75.96 58.58 75.94 58.57L75.94 58.57Z" />
	<path id="Layer" class="shp21" d="M58.86 217.87C58.6 217.76 58.36 217.6 58.16 217.4C57.96 217.2 57.79 216.97 57.67 216.71C57.55 216.45 57.48 216.17 57.46 215.88C57.44 215.6 57.47 215.31 57.56 215.04C57.57 215.02 57.57 215 57.58 214.98C57.58 214.95 57.59 214.93 57.59 214.91C57.6 214.89 57.6 214.87 57.6 214.84C57.61 214.82 57.61 214.8 57.61 214.78L57.61 214.78C57.62 214.53 57.55 214.29 57.41 214.08C57.28 213.88 57.08 213.72 56.85 213.64C56.62 213.55 56.36 213.54 56.13 213.6C55.89 213.67 55.68 213.81 55.52 214L55.52 214C55.51 214.02 55.5 214.04 55.48 214.05C55.47 214.07 55.46 214.09 55.45 214.11C55.44 214.13 55.43 214.15 55.42 214.17C55.41 214.19 55.4 214.21 55.39 214.23C55.28 214.49 55.12 214.73 54.92 214.93C54.72 215.14 54.48 215.3 54.22 215.42C53.96 215.54 53.68 215.61 53.4 215.63C53.11 215.65 52.83 215.62 52.55 215.54C52.53 215.53 52.51 215.52 52.49 215.52C52.47 215.51 52.45 215.51 52.43 215.5C52.4 215.5 52.38 215.49 52.36 215.49C52.34 215.49 52.32 215.48 52.29 215.48L52.29 215.48C52.05 215.47 51.8 215.54 51.6 215.68C51.39 215.82 51.24 216.02 51.15 216.25C51.07 216.48 51.05 216.73 51.12 216.97C51.18 217.21 51.32 217.42 51.52 217.57L51.52 217.57C51.53 217.58 51.55 217.6 51.57 217.61C51.59 217.62 51.61 217.63 51.63 217.64C51.65 217.65 51.66 217.67 51.68 217.67C51.7 217.68 51.72 217.69 51.74 217.7C52.01 217.82 52.25 217.98 52.45 218.18C52.65 218.38 52.82 218.61 52.94 218.87C53.06 219.13 53.13 219.41 53.15 219.69C53.17 219.98 53.13 220.26 53.05 220.54C53.04 220.56 53.04 220.58 53.03 220.6C53.03 220.62 53.02 220.65 53.02 220.67C53.01 220.69 53.01 220.71 53.01 220.73C53 220.75 53 220.78 53 220.8L53 220.8C52.99 221.05 53.06 221.29 53.2 221.49C53.33 221.7 53.53 221.85 53.76 221.94C53.99 222.03 54.25 222.04 54.48 221.97C54.72 221.91 54.93 221.77 55.09 221.58L55.09 221.58C55.1 221.56 55.11 221.54 55.13 221.52C55.14 221.5 55.15 221.49 55.16 221.47C55.17 221.45 55.18 221.43 55.19 221.41C55.2 221.39 55.21 221.37 55.22 221.35C55.33 221.09 55.49 220.85 55.69 220.64C55.89 220.44 56.13 220.27 56.39 220.15C56.65 220.03 56.93 219.96 57.21 219.94C57.5 219.93 57.78 219.96 58.05 220.04C58.08 220.05 58.1 220.05 58.12 220.06C58.14 220.07 58.16 220.07 58.18 220.08C58.21 220.08 58.23 220.08 58.25 220.09C58.27 220.09 58.29 220.09 58.32 220.09L58.32 220.09C58.56 220.1 58.8 220.03 59.01 219.9C59.21 219.76 59.37 219.56 59.46 219.33C59.54 219.1 59.55 218.85 59.49 218.61C59.42 218.37 59.29 218.16 59.09 218.01L59.09 218.01C59.08 217.99 59.06 217.98 59.04 217.97C59.02 217.96 59 217.94 58.98 217.93C58.96 217.92 58.94 217.91 58.92 217.9C58.9 217.89 58.88 217.88 58.86 217.87Z" />
	<path id="Layer" class="shp22" d="M176.44 18.78C174.32 18.78 172.61 17.06 172.61 14.95C172.61 12.83 174.32 11.11 176.44 11.11C178.56 11.11 180.27 12.83 180.27 14.95C180.27 17.06 178.56 18.78 176.44 18.78Z" />
	<path id="Layer" class="shp22" d="M3.83 169.61C1.71 169.61 0 167.9 0 165.78C0 163.66 1.71 161.94 3.83 161.94C5.95 161.94 7.67 163.66 7.67 165.78C7.67 167.9 5.95 169.61 3.83 169.61Z" />
	<path id="Layer" class="shp22" d="M451.15 66.68C449.03 66.68 447.31 64.97 447.31 62.85C447.31 60.73 449.03 59.02 451.15 59.02C453.27 59.02 454.98 60.73 454.98 62.85C454.98 64.97 453.27 66.68 451.15 66.68Z" />
	<path id="Layer" class="shp20" d="M429.43 181.01C427.3 181.01 425.59 179.3 425.59 177.18C425.59 175.06 427.3 173.35 429.43 173.35C431.55 173.35 433.26 175.06 433.26 177.18C433.26 179.3 431.55 181.01 429.43 181.01Z" />
	<path id="Layer" class="shp23" d="M19.68 79.67C17.56 79.67 15.85 77.95 15.85 75.83C15.85 73.71 17.56 72 19.68 72C21.8 72 23.51 73.71 23.51 75.83C23.51 77.95 21.8 79.67 19.68 79.67Z" />
	<path id="Layer" class="shp23" d="M445.68 341.87C443.56 341.87 441.85 340.16 441.85 338.04C441.85 335.92 443.56 334.2 445.68 334.2C447.8 334.2 449.51 335.92 449.51 338.04C449.51 340.16 447.8 341.87 445.68 341.87Z" />
	<path id="Layer" class="shp23" d="M475.72 228.88C473.6 228.88 471.88 227.17 471.88 225.05C471.88 222.93 473.6 221.22 475.72 221.22C477.84 221.22 479.55 222.93 479.55 225.05C479.55 227.17 477.84 228.88 475.72 228.88Z" />
	<path id="Layer" class="shp24" d="M284.35 313.86L381.75 313.86L381.75 393.8L284.35 393.8L284.35 313.86Z" />
	<path id="Layer" class="shp25" d="M304.45 298.57C304.45 291.02 307.45 283.77 312.79 278.43C318.14 273.09 325.38 270.09 332.94 270.09C340.5 270.09 347.74 273.09 353.09 278.43C358.43 283.77 361.43 291.02 361.43 298.57L361.43 316.8L369.41 316.8L369.41 298.57C369.4 288.9 365.56 279.63 358.72 272.79C351.88 265.96 342.61 262.11 332.94 262.11C323.26 262.11 313.99 265.96 307.15 272.79C300.31 279.63 296.47 288.9 296.47 298.57L296.47 316.8L304.44 316.8L304.45 298.57Z" />
	<path id="Layer" class="shp5" d="M305.59 298.18C305.59 290.93 308.47 283.97 313.6 278.85C318.73 273.72 325.68 270.84 332.94 270.84C340.19 270.84 347.15 273.72 352.28 278.85C357.41 283.97 360.29 290.93 360.29 298.18L360.29 315.69L367.95 315.69L367.95 298.18C367.93 288.9 364.25 280 357.68 273.44C351.12 266.88 342.22 263.2 332.94 263.2C323.66 263.2 314.76 266.88 308.19 273.44C301.63 280 297.94 288.9 297.94 298.18L297.93 315.69L305.59 315.69L305.59 298.18Z" />
	<path id="Layer" class="shp15" d="M285.35 314.6L380.53 314.6L380.53 392.26L285.35 392.26L285.35 314.6Z" />
	<path id="Layer" class="shp5" d="M285.35 314.6L380.53 314.6L380.53 392.26L285.35 392.26L285.35 314.6Z" />
	<path id="Layer" class="shp15" d="M285.35 329.91L380.53 329.91L380.53 376.94L285.35 376.94L285.35 329.91Z" />
	<path id="Layer" class="shp26" d="M339.92 344.53C339.92 342.21 338.78 340.05 336.86 338.75C334.95 337.45 332.52 337.18 330.37 338.03C328.22 338.89 326.63 340.75 326.13 343.01C325.63 345.26 326.28 347.62 327.86 349.31L327.86 364.19C327.86 365.54 328.4 366.83 329.35 367.78C330.3 368.73 331.59 369.27 332.94 369.27C334.29 369.27 335.58 368.73 336.53 367.78C337.48 366.83 338.02 365.54 338.02 364.19L338.02 349.32C338.32 349 338.59 348.65 338.83 348.28C339.06 347.91 339.27 347.52 339.43 347.11C339.59 346.7 339.71 346.27 339.8 345.84C339.88 345.41 339.92 344.97 339.92 344.53Z" />
	<path id="Layer" class="shp27" d="M338.96 345.77C338.96 343.78 337.97 341.91 336.32 340.79C334.67 339.67 332.58 339.44 330.72 340.17C328.87 340.91 327.5 342.51 327.07 344.46C326.63 346.41 327.19 348.44 328.56 349.89L328.56 362.73C328.56 363.89 329.02 365 329.84 365.82C330.67 366.64 331.78 367.1 332.94 367.1C334.1 367.1 335.21 366.64 336.03 365.82C336.86 365 337.32 363.89 337.32 362.73L337.32 349.89C337.58 349.62 337.81 349.32 338.01 349C338.22 348.68 338.39 348.34 338.53 347.99C338.67 347.64 338.78 347.27 338.85 346.9C338.92 346.53 338.96 346.15 338.96 345.77L338.96 345.77Z" />
</svg>